PathFileType	4	(X/Y/Z)	D:\Share\Shared_Data\Ergonomics\Sit To Stand Pertubation\S1\Unperturbed_NoHarness.trc
DataRate	CameraRate	NumFrames	NumMarkers	Units	OrigDataRate	OrigDataStartFrame	OrigNumFrames	
100	100	17	18	m	100	1316	281
Frame#	Time	R_Thigh_Med			R_ASIS			R_Pelvis			V_Sacral			L_Pelvis			L_ASIS			Clavical			R_Acromium			L_Acromium			Sternum			Torso			R_Thigh_Lat			R_Thigh			R_Shank_Med			R_Shank_Lat			R_Shank			R_Heel			R_Toe			
		X1	Y1	Z1	X2	Y2	Z2	X3	Y3	Z3	X4	Y4	Z4	X5	Y5	Z5	X6	Y6	Z6	X7	Y7	Z7	X8	Y8	Z8	X9	Y9	Z9	X10	Y10	Z10	X11	Y11	Z11	X12	Y12	Z12	X13	Y13	Z13	X14	Y14	Z14	X15	Y15	Z15	X16	Y16	Z16	X17	Y17	Z17	X18	Y18	Z18	

1316	13.15	0.32774835	0.41448026	0.021795542	0.03821368	0.6312677	0.082953262	-0.044044106	0.63357715	0.11635711	-0.1469481	0.56656659	-0.019034338	-0.04321439	0.63100623	-0.15984782	0.049626823	0.64254419	-0.11725735	0.11074321	0.95312561	-0.016882719	0.060670959	1.0348868	0.13192816	0.0090813208	0.9980332	-0.21431325	0.096398186	0.96790698	0.085217216	0.10957146	0.9606283	-0.076314682	0.32325333	0.43384735	0.143731	0.1973613	0.5513772	0.088431686	0.31651755	0.097736458	0.072209114	0.28802682	0.099498955	0.15055676	0.3091369	0.31094662	0.16175784	0.24312009	0.031862251	0.093645485	0.44793256	0.053943871	0.11812088
1317	13.16	0.32768158	0.41437433	0.021885736	0.038310196	0.63118805	0.082975685	-0.043984432	0.63357111	0.1163933	-0.14694205	0.56659454	-0.019005529	-0.04314909	0.63104242	-0.1598356	0.049836887	0.64247144	-0.11719276	0.11370042	0.9519718	-0.016581297	0.064423645	1.0341572	0.13222456	0.012498648	0.99799182	-0.21400667	0.099487358	0.96685138	0.08550592	0.11262266	0.95954407	-0.075998672	0.32326645	0.43376639	0.14384674	0.19744075	0.55131677	0.088587715	0.31632297	0.097689751	0.072242332	0.28780984	0.099458084	0.15058272	0.3090625	0.31087064	0.16182489	0.24304097	0.031750389	0.093650986	0.44777997	0.054330776	0.11829849
1318	13.17	0.327677	0.4143295	0.021980085	0.038408333	0.63109576	0.082990913	-0.043918812	0.63357233	0.1164133	-0.14693753	0.56662402	-0.018978918	-0.04307626	0.63107129	-0.15984906	0.050078449	0.64239136	-0.1171391	0.11679034	0.95073669	-0.016280359	0.068377785	1.0333668	0.13251091	0.016087261	0.99791058	-0.21370078	0.10272605	0.96572992	0.085791367	0.11581624	0.95838153	-0.075678673	0.32327695	0.43370248	0.14394473	0.19751785	0.55125818	0.088727158	0.31613538	0.0976474	0.072270058	0.28759271	0.099417229	0.15060451	0.30898026	0.31080563	0.1618828	0.24296341	0.031643339	0.093654495	0.44762955	0.054730362	0.1184906
1319	13.18	0.32779422	0.41439316	0.022098885	0.038510952	0.63098956	0.082999329	-0.043849689	0.63357916	0.11641773	-0.14693568	0.56665363	-0.018956623	-0.042991196	0.63109216	-0.15987802	0.05034494	0.64229773	-0.11709786	0.120017	0.94941565	-0.015979398	0.072537384	1.0325089	0.13278424	0.019857172	0.99778137	-0.21339264	0.10611193	0.96453735	0.086074097	0.11915635	0.95713409	-0.075353058	0.32328052	0.43365433	0.14402686	0.19758485	0.55120001	0.088849747	0.3159628	0.097609856	0.072291222	0.28738593	0.099374298	0.15062303	0.30889072	0.31075098	0.16193295	0.2428909	0.031544886	0.093654533	0.44748947	0.055125484	0.11869212
1320	13.19	0.32811172	0.41462592	0.022267572	0.038622505	0.63086798	0.083001358	-0.043777317	0.63358929	0.11640867	-0.14693669	0.56668298	-0.018940731	-0.042890491	0.63110657	-0.15991643	0.050629368	0.64218353	-0.11707036	0.12338425	0.94800537	-0.015677542	0.07690435	1.0315775	0.13304237	0.023822245	0.99759772	-0.21307605	0.10963961	0.96326672	0.086354912	0.12264646	0.95579675	-0.075019928	0.32327405	0.43361987	0.14409474	0.1976371	0.5511413	0.088956604	0.3158114	0.097576843	0.072304756	0.28719928	0.099328743	0.15063829	0.30879584	0.31070554	0.16197644	0.24282648	0.031458261	0.093649864	0.44736526	0.055496712	0.11889468
1321	13.2	0.32871838	0.41509598	0.02251387	0.038748596	0.63072986	0.082997818	-0.043699909	0.63360132	0.11638885	-0.14693954	0.56671344	-0.018932949	-0.042771923	0.63111749	-0.15995969	0.050926357	0.64204169	-0.11705785	0.12689623	0.94650159	-0.015374243	0.081478142	1.0305659	0.13328438	0.027996157	0.99735413	-0.21274504	0.11330109	0.96190759	0.086634659	0.12628916	0.95436646	-0.074677467	0.32325558	0.43359692	0.14414958	0.19767371	0.55108234	0.089048775	0.31568506	0.097547432	0.072309586	0.2870405	0.099281311	0.15064911	0.30869763	0.31066742	0.1620134	0.24277229	0.031385395	0.093640053	0.44725937	0.055825539	0.11908747
1322	13.21	0.3296933	0.4158642	0.022861837	0.038894665	0.63057288	0.082990402	-0.043613529	0.63361523	0.11636113	-0.1469422	0.56674756	-0.018934774	-0.042633583	0.63112982	-0.16000201	0.051233917	0.6418653	-0.11706133	0.1305582	0.94489716	-0.015069844	0.086257042	1.0294684	0.13351062	0.032387051	0.99704688	-0.21239899	0.11708868	0.96044647	0.086915192	0.13008667	0.952841	-0.074324066	0.32322427	0.43358313	0.14419218	0.19769673	0.55102454	0.089126358	0.31558493	0.097520538	0.072304771	0.28691382	0.09923333	0.15065364	0.30859763	0.31063403	0.16204343	0.24272925	0.03132679	0.093625603	0.44717227	0.056098976	0.11925918
1323	13.22	0.3310704	0.41695679	0.023321682	0.039065067	0.63039301	0.082982002	-0.043511612	0.63363269	0.116328	-0.14694133	0.566789	-0.018947361	-0.042472275	0.63114935	-0.16003642	0.051554764	0.64164899	-0.117081	0.1343766	0.94318048	-0.014765507	0.091239784	1.0282788	0.1337225	0.036996193	0.99667261	-0.21204317	0.1209997	0.95886841	0.087199738	0.13404184	0.9512193	-0.073958313	0.32318057	0.43357617	0.14422313	0.19770934	0.55097021	0.089188187	0.31550885	0.097495117	0.072289658	0.28681927	0.099186089	0.1506499	0.30849689	0.31060242	0.16206644	0.24269681	0.031281733	0.093607574	0.44710364	0.056312077	0.11940073
1324	13.23	0.33278394	0.41832288	0.023874111	0.039264366	0.63018445	0.082976624	-0.043384674	0.63365582	0.11629115	-0.14693236	0.56684247	-0.018970984	-0.042281792	0.63118085	-0.16005547	0.051897171	0.64138849	-0.11711554	0.13835818	0.94133618	-0.014462958	0.09642585	1.0269912	0.13392149	0.041820919	0.99622845	-0.2116846	0.12504123	0.95716217	0.087491745	0.13815906	0.94950018	-0.073579048	0.32312643	0.43357391	0.14424289	0.19771379	0.55092151	0.089231972	0.31545184	0.097470276	0.072264343	0.28675284	0.099140938	0.15063647	0.30839691	0.31056973	0.16208315	0.24267311	0.031248484	0.093586998	0.44705212	0.056465816	0.11950797
1325	13.24	0.33463229	0.41980615	0.024459982	0.039500038	0.62994	0.082978813	-0.043220703	0.63368701	0.1162512	-0.14690923	0.56691388	-0.019004692	-0.042052662	0.63122723	-0.16005116	0.052274578	0.64108032	-0.11716194	0.14250885	0.93934515	-0.014164181	0.10181483	1.0256002	0.13410919	0.046858475	0.99571075	-0.21132863	0.12923203	0.95532587	0.087792519	0.1424442	0.94768201	-0.073185219	0.32306494	0.43357486	0.14425169	0.19771001	0.55088025	0.089254219	0.31540695	0.097445328	0.072230209	0.28670688	0.099099533	0.15061325	0.30829858	0.31053433	0.1620947	0.24265526	0.031224283	0.093564674	0.44701468	0.056561363	0.11958257
1326	13.25	0.33634052	0.42119272	0.024998869	0.039784412	0.62965082	0.082993279	-0.043005997	0.63372784	0.11620798	-0.14686449	0.56700977	-0.019046314	-0.041773491	0.63129077	-0.16001605	0.052703579	0.64072186	-0.11721589	0.14683366	0.93718628	-0.013870906	0.10740622	1.0241005	0.13428804	0.052107586	0.9951156	-0.21097826	0.13359712	0.9533678	0.088100182	0.1469028	0.94576361	-0.07277562	0.3229996	0.43357785	0.14424969	0.19769659	0.5508465	0.089250778	0.31536676	0.097420135	0.072190254	0.28667178	0.099063461	0.15058179	0.30820248	0.31049576	0.16210245	0.24264012	0.0312055	0.093541138	0.44698694	0.05659325	0.11963024
1327	13.26	0.33769415	0.42231305	0.025428013	0.040134644	0.62930817	0.083024414	-0.042726215	0.63377911	0.11616132	-0.14678969	0.56713721	-0.01909207	-0.041431789	0.6313739	-0.15994478	0.053201374	0.64031042	-0.11727229	0.1513378	0.93483618	-0.013584095	0.1132001	1.0224879	0.13446146	0.05756731	0.99443866	-0.21063515	0.13815744	0.9513006	0.088411697	0.15153822	0.94374487	-0.072349007	0.32293372	0.43358167	0.14423718	0.19767302	0.55081598	0.089219543	0.31532547	0.097395119	0.07214872	0.2866391	0.099033676	0.15054533	0.30810873	0.31045511	0.16210771	0.24262506	0.031188601	0.09351683	0.4469639	0.056543468	0.11965688
1328	13.27	0.33860178	0.42309064	0.025720436	0.040570908	0.62890381	0.083075943	-0.042367378	0.63384045	0.11611169	-0.14667532	0.56730402	-0.019136213	-0.04101376	0.63147858	-0.15983545	0.053783653	0.63984369	-0.1173257	0.15602711	0.93227209	-0.013303297	0.11919816	1.0207607	0.13463301	0.063235352	0.99367554	-0.21029993	0.14292464	0.94913556	0.088725471	0.15635165	0.94162732	-0.071904968	0.3228707	0.43358472	0.14421504	0.19764079	0.55077917	0.089164284	0.31528021	0.097370972	0.072109779	0.28660345	0.099009987	0.1505078	0.30801865	0.31041446	0.16211159	0.24260873	0.031171417	0.093492386	0.44694189	0.056378906	0.11966462
1329	13.28	0.33905804	0.42351468	0.025874113	0.041114525	0.62843262	0.083150169	-0.041916763	0.63391089	0.11606045	-0.14651125	0.56751929	-0.019172085	-0.040504589	0.63160535	-0.15969116	0.054463562	0.63932013	-0.1173708	0.16090704	0.92947986	-0.013025471	0.12540384	1.0189186	0.13480508	0.06910762	0.99282202	-0.20997188	0.14790337	0.94688007	0.089041687	0.16134367	0.93941266	-0.071444382	0.32281406	0.43358453	0.14418515	0.19760399	0.5507254	0.089094582	0.31523187	0.097348221	0.072076263	0.28656445	0.09899118	0.1504727	0.3079357	0.31037604	0.16211455	0.2425914	0.031153662	0.09346875	0.44691913	0.056055191	0.11964982
1330	13.29	0.33909003	0.42359988	0.02589641	0.041787704	0.62789459	0.083246689	-0.041362976	0.63399005	0.11600945	-0.146287	0.56779291	-0.01919455	-0.039889446	0.63175305	-0.15952104	0.055251541	0.63873956	-0.1174035	0.16598178	0.92646692	-0.012743014	0.13182135	1.0169648	0.13497786	0.075179878	0.99187537	-0.20964842	0.15309509	0.94453851	0.08936145	0.16651605	0.93710254	-0.070968712	0.32276752	0.43357834	0.14415002	0.19756943	0.55064923	0.089020508	0.31518411	0.097327171	0.072048798	0.28652618	0.09897567	0.15044197	0.30786609	0.31034183	0.16211667	0.24257443	0.031136528	0.093446938	0.44689615	0.055529198	0.11960416
1331	13.3	0.33872702	0.4233634	0.025795361	0.042610397	0.62729559	0.083361526	-0.040695007	0.63407745	0.11596064	-0.14599243	0.56813409	-0.019201466	-0.039154377	0.63191949	-0.15933757	0.056156109	0.63810352	-0.11742147	0.17125415	0.92327368	-0.012443314	0.1384534	1.0149031	0.13514813	0.081451332	0.99083441	-0.20932465	0.15849998	0.94211346	0.089686012	0.17187257	0.93469781	-0.070478531	0.32273532	0.43356314	0.14411209	0.19754568	0.550552	0.088949173	0.31514178	0.097308083	0.072026108	0.28649478	0.098962364	0.15041533	0.30781784	0.31031287	0.16211784	0.24255989	0.031121752	0.093427795	0.44687454	0.054780338	0.11951965
1332	13.31	0.3379935	0.42281931	0.025577585	0.043589127	0.62664276	0.083489311	-0.039901989	0.63417322	0.11591594	-0.14561826	0.56855121	-0.019192911	-0.038286907	0.63210321	-0.15914951	0.057185513	0.63741364	-0.11742395	0.17672574	0.91996747	-0.012114276	0.1452966	1.0127385	0.13530907	0.087926819	0.9896994	-0.20899535	0.16411673	0.93960663	0.090016243	0.17741936	0.932198	-0.069972786	0.32272144	0.43353729	0.144073	0.19754123	0.55044055	0.088885742	0.31510889	0.097290947	0.072005737	0.28647574	0.098950928	0.15039088	0.30779858	0.31028964	0.16211769	0.24254956	0.031110659	0.093411591	0.44685669	0.053841141	0.1193969
